<svg width="27" height="27" viewBox="0 0 27 27" fill="none" xmlns="http://www.w3.org/2000/svg">
<path fill-rule="evenodd" clip-rule="evenodd" d="M8 12.75C8 10.5406 9.79057 8.75 12 8.75C14.2094 8.75 16 10.5406 16 12.75C16 14.9594 14.2094 16.75 12 16.75C9.79057 16.75 8 14.9594 8 12.75ZM12 10.25C10.619 10.25 9.5 11.369 9.5 12.75C9.5 14.131 10.619 15.25 12 15.25C13.381 15.25 14.5 14.131 14.5 12.75C14.5 11.369 13.381 10.25 12 10.25Z" fill="#97979D"/>
<path fill-rule="evenodd" clip-rule="evenodd" d="M9.84929 4.75C9.58584 4.75 9.34171 4.88822 9.20617 5.11413L8.58007 6.15762C8.17345 6.83533 7.44106 7.25 6.65071 7.25H6.5C4.98122 7.25 3.75 8.48122 3.75 10V16C3.75 17.7949 5.20507 19.25 7 19.25H17C18.7949 19.25 20.25 17.7949 20.25 16V10C20.25 8.48122 19.0188 7.25 17.5 7.25H17.3493C16.5589 7.25 15.8266 6.83533 15.4199 6.15761L14.7938 5.11413C14.6583 4.88822 14.4142 4.75 14.1507 4.75H9.84929ZM7.91993 4.34239C8.32655 3.66467 9.05894 3.25 9.84929 3.25H14.1507C14.9411 3.25 15.6734 3.66467 16.0801 4.34238L16.7062 5.38587C16.8417 5.61178 17.0858 5.75 17.3493 5.75H17.5C19.8472 5.75 21.75 7.65279 21.75 10V16C21.75 18.6234 19.6234 20.75 17 20.75H7C4.37665 20.75 2.25 18.6234 2.25 16V10C2.25 7.65279 4.15279 5.75 6.5 5.75H6.65071C6.91416 5.75 7.15829 5.61178 7.29383 5.38587L7.91993 4.34239Z" fill="#97979D"/>
<path d="M20.2139 14.9644C23.1134 14.9644 25.4639 17.3149 25.4639 20.2144C25.4639 23.1139 23.1134 25.4644 20.2139 25.4644C17.3144 25.4644 14.9639 23.1139 14.9639 20.2144C14.9639 17.3149 17.3144 14.9644 20.2139 14.9644Z" fill="#000947" stroke="white" stroke-width="1.5" stroke-linecap="round" stroke-linejoin="round"/>
<path d="M18.5 20.2144H21.9286" stroke="white" stroke-linecap="round" stroke-linejoin="bevel"/>
<path d="M20.2139 18.5V21.9286" stroke="white" stroke-linecap="round" stroke-linejoin="bevel"/>
</svg>
