<svg width="120" height="30" viewBox="0 0 120 30" fill="none" xmlns="http://www.w3.org/2000/svg">
<path d="M5.86959 4H8.28201C8.52512 4 8.73083 4.08365 8.89913 4.25095C9.06744 4.41825 9.1516 4.62273 9.1516 4.86439V11.417H17.8195V4.86439C17.8195 4.62273 17.9036 4.41825 18.0719 4.25095C18.2402 4.08365 18.4459 4 18.689 4H21.0734C21.3165 4 21.5222 4.08365 21.6905 4.25095C21.8589 4.41825 21.943 4.62273 21.943 4.86439V25.1635C21.943 25.3866 21.8589 25.5817 21.6905 25.7491C21.5222 25.9164 21.3165 26 21.0734 26H18.689C18.4459 26 18.2402 25.9164 18.0719 25.7491C17.9036 25.5817 17.8195 25.3866 17.8195 25.1635V16.0177H9.1516V25.1635C9.1516 25.3866 9.06744 25.5817 8.89913 25.7491C8.73083 25.9164 8.52512 26 8.28201 26H5.86959C5.62648 26 5.42077 25.9164 5.25246 25.7491C5.08415 25.5817 5 25.3866 5 25.1635V4.86439C5 4.62273 5.08415 4.41825 5.25246 4.25095C5.42077 4.08365 5.62648 4 5.86959 4Z" fill="black"/>
<path d="M25.2886 21.9011H29.328V8.09886H25.2886C25.0642 8.09886 24.8678 8.0245 24.6995 7.87579C24.5312 7.70849 24.447 7.50401 24.447 7.26236V4.86439C24.447 4.62273 24.5312 4.41825 24.6995 4.25095C24.8678 4.08365 25.0642 4 25.2886 4H37.9397C38.1641 4 38.3605 4.08365 38.5288 4.25095C38.6971 4.41825 38.7813 4.62273 38.7813 4.86439V7.26236C38.7813 7.50401 38.6971 7.70849 38.5288 7.87579C38.3605 8.0245 38.1641 8.09886 37.9397 8.09886H33.9284V21.9011H37.9397C38.1641 21.9011 38.3605 21.9848 38.5288 22.1521C38.6971 22.3194 38.7813 22.5146 38.7813 22.7376V25.1635C38.7813 25.3866 38.6971 25.5817 38.5288 25.7491C38.3605 25.9164 38.1641 26 37.9397 26H25.2886C25.0642 26 24.8678 25.9164 24.6995 25.7491C24.5312 25.5817 24.447 25.3866 24.447 25.1635V22.7376C24.447 22.5146 24.5312 22.3194 24.6995 22.1521C24.8678 21.9848 25.0642 21.9011 25.2886 21.9011Z" fill="black"/>
<path d="M47.4502 12.8112H50.7509C50.9753 12.8112 51.1717 12.8948 51.34 13.0621C51.5083 13.2294 51.5925 13.4339 51.5925 13.6755V15.9341C51.5925 16.1572 51.5083 16.3523 51.34 16.5196C51.1717 16.6869 50.9753 16.7706 50.7509 16.7706H47.4502C47.2258 16.7706 47.0294 16.6869 46.8611 16.5196C46.6928 16.3523 46.6087 16.1572 46.6087 15.9341V13.6755C46.6087 13.4339 46.6928 13.2294 46.8611 13.0621C47.0294 12.8948 47.2258 12.8112 47.4502 12.8112Z" fill="black"/>
<path d="M59.2329 6.42586H60.8037V4.86439C60.8037 4.62273 60.8879 4.41825 61.0562 4.25095C61.2245 4.08365 61.4209 4 61.6453 4H71.856C72.0991 4 72.2954 4.08365 72.445 4.25095C72.6133 4.41825 72.6975 4.62273 72.6975 4.86439V6.59316H74.4367C74.6798 6.59316 74.8855 6.67681 75.0538 6.84411C75.2221 6.99282 75.3063 7.188 75.3063 7.42966V25.1635C75.3063 25.3866 75.2221 25.5817 75.0538 25.7491C74.8855 25.9164 74.6798 26 74.4367 26H72.0523C71.8092 26 71.6035 25.9164 71.4352 25.7491C71.2669 25.5817 71.1827 25.3866 71.1827 25.1635V18.583H62.5149V25.1635C62.5149 25.3866 62.4307 25.5817 62.2624 25.7491C62.0941 25.9164 61.8884 26 61.6453 26H59.2329C58.9897 26 58.784 25.9164 58.6157 25.7491C58.4474 25.5817 58.3633 25.3866 58.3633 25.1635V7.26236C58.3633 7.03929 58.4474 6.84411 58.6157 6.67681C58.784 6.50951 58.9897 6.42586 59.2329 6.42586ZM62.6551 14.0101H71.1827V8.09886H62.6551V14.0101Z" fill="#000947"/>
<path d="M79.203 4H91.8261C92.0692 4 92.2656 4.08365 92.4152 4.25095C92.5835 4.41825 92.6676 4.62273 92.6676 4.86439V6.59316H94.4068C94.6499 6.59316 94.8556 6.67681 95.0239 6.84411C95.1922 6.99282 95.2764 7.188 95.2764 7.42966V15.0139C95.2764 15.2556 95.1922 15.4601 95.0239 15.6274C94.8556 15.7761 94.6499 15.8504 94.4068 15.8504H92.864V17.5792C92.864 17.8209 92.7798 18.0253 92.6115 18.1926C92.4432 18.3599 92.2469 18.4436 92.0225 18.4436H90.2272V19.4753H91.8261C92.0692 19.4753 92.2656 19.5589 92.4152 19.7262C92.5835 19.8935 92.6676 20.0887 92.6676 20.3118V22.0406H94.4068C94.6499 22.0406 94.8556 22.1242 95.0239 22.2915C95.1922 22.4588 95.2764 22.6633 95.2764 22.9049V25.1635C95.2764 25.3866 95.1922 25.5817 95.0239 25.7491C94.8556 25.9164 94.6499 26 94.4068 26H92.1627C91.9383 26 91.7419 25.9164 91.5736 25.7491C91.4053 25.5817 91.3212 25.3866 91.3212 25.1635V23.4347H89.582C89.3389 23.4347 89.1332 23.3511 88.9649 23.1838C88.8153 23.0165 88.7404 22.8213 88.7404 22.5982V20.8416H86.8049C86.5805 20.8416 86.3841 20.7672 86.2158 20.6185C86.0475 20.4512 85.9634 20.2467 85.9634 20.0051V18.583H82.485V25.1635C82.485 25.3866 82.4008 25.5817 82.2325 25.7491C82.0642 25.9164 81.8585 26 81.6154 26H79.203C78.9599 26 78.7542 25.9164 78.5859 25.7491C78.4176 25.5817 78.3334 25.3866 78.3334 25.1635V4.86439C78.3334 4.62273 78.4176 4.41825 78.5859 4.25095C78.7542 4.08365 78.9599 4 79.203 4ZM82.6253 14.0101H91.1529V8.09886H82.6253V14.0101Z" fill="#276A91"/>
<path d="M98.9266 6.42586H100.497V4.86439C100.497 4.62273 100.582 4.41825 100.75 4.25095C100.918 4.08365 101.115 4 101.339 4H111.55C111.793 4 111.989 4.08365 112.139 4.25095C112.307 4.41825 112.391 4.62273 112.391 4.86439V6.59316H114.13C114.374 6.59316 114.579 6.67681 114.748 6.84411C114.916 6.99282 115 7.188 115 7.42966V9.68821C115 9.92987 114.916 10.1343 114.748 10.3016C114.579 10.4504 114.374 10.5247 114.13 10.5247H111.886C111.662 10.5247 111.466 10.4504 111.297 10.3016C111.129 10.1343 111.045 9.92987 111.045 9.68821V8.09886H102.209V21.9011H110.876V20.3118C110.876 20.0887 110.961 19.8935 111.129 19.7262C111.297 19.5589 111.503 19.4753 111.746 19.4753H114.13C114.374 19.4753 114.579 19.5589 114.748 19.7262C114.916 19.8935 115 20.0887 115 20.3118V22.7376C115 22.9607 114.916 23.1559 114.748 23.3232C114.579 23.4905 114.374 23.5741 114.13 23.5741H112.588V25.1635C112.588 25.3866 112.503 25.5817 112.335 25.7491C112.167 25.9164 111.97 26 111.746 26H101.507C101.264 26 101.058 25.9164 100.89 25.7491C100.741 25.5817 100.666 25.3866 100.666 25.1635V23.4347H98.9266C98.6835 23.4347 98.4778 23.3511 98.3095 23.1838C98.1412 23.0165 98.057 22.8213 98.057 22.5982V7.26236C98.057 7.03929 98.1412 6.84411 98.3095 6.67681C98.4778 6.50951 98.6835 6.42586 98.9266 6.42586Z" fill="#01B5C9"/>
</svg>
