<svg width="16" height="16" viewBox="0 0 16 16" fill="none" xmlns="http://www.w3.org/2000/svg">
<g clip-path="url(#clip0_2827_1343)">
<path d="M14.5717 15.145H1.42885C1.11278 15.145 0.857422 14.8897 0.857422 14.5736V1.43073C0.857422 1.11466 1.11278 0.859303 1.42885 0.859303H7.85742C7.93599 0.859303 8.00028 0.92359 8.00028 1.00216V2.00216C8.00028 2.08073 7.93599 2.14502 7.85742 2.14502H2.14314V13.8593H13.8574V8.14502C13.8574 8.06645 13.9217 8.00216 14.0003 8.00216H15.0003C15.0789 8.00216 15.1431 8.06645 15.1431 8.14502V14.5736C15.1431 14.8897 14.8878 15.145 14.5717 15.145Z" fill="#0F0F11"/>
<path d="M12.6234 2.43992L11.6913 1.50778C11.6724 1.4888 11.6592 1.4649 11.6532 1.43881C11.6473 1.41271 11.6487 1.38547 11.6575 1.36016C11.6662 1.33486 11.6819 1.31252 11.7027 1.29568C11.7235 1.27885 11.7486 1.26819 11.7752 1.26492L14.9788 0.889917C15.0698 0.879203 15.1484 0.955989 15.1377 1.04885L14.7627 4.25242C14.7484 4.37028 14.6038 4.42027 14.5198 4.33635L13.5841 3.40063L9.00912 7.97563C8.95376 8.03099 8.86269 8.03099 8.80733 7.97563L8.05019 7.21849C7.99483 7.16313 7.99483 7.07206 8.05019 7.0167L12.6234 2.43992Z" fill="#0F0F11"/>
</g>
<defs>
<clipPath id="clip0_2827_1343">
<rect width="16" height="16" fill="white"/>
</clipPath>
</defs>
</svg>
