<svg width="16" height="16" viewBox="0 0 16 16" fill="none" xmlns="http://www.w3.org/2000/svg">
<path d="M14.3566 8.5976L8.42985 1.76724C8.37628 1.70544 8.31004 1.65587 8.23564 1.6219C8.16123 1.58792 8.08039 1.57034 7.9986 1.57034C7.91681 1.57034 7.83597 1.58792 7.76156 1.6219C7.68716 1.65587 7.62093 1.70544 7.56735 1.76724L1.64235 8.5976C1.62445 8.61819 1.61284 8.64349 1.60891 8.67049C1.60498 8.69749 1.60889 8.72505 1.62018 8.74989C1.63147 8.77472 1.64966 8.79579 1.67259 8.81059C1.69551 8.82538 1.72221 8.83327 1.74949 8.83331H3.19592C3.27807 8.83331 3.35664 8.7976 3.41199 8.7351L7.32092 4.22974V14.2851C7.32092 14.3637 7.38521 14.428 7.46378 14.428H8.53521C8.61378 14.428 8.67807 14.3637 8.67807 14.2851V4.22974L12.587 8.7351C12.6406 8.7976 12.7191 8.83331 12.8031 8.83331H14.2495C14.3709 8.83331 14.437 8.69046 14.3566 8.5976Z" fill="#01B5C9"/>
</svg>
