<svg width="16" height="17" viewBox="0 0 16 17" fill="none" xmlns="http://www.w3.org/2000/svg">
<path d="M14.4282 7.82115H3.97999L10.2336 2.39258C10.3336 2.30508 10.2728 2.14258 10.1407 2.14258H8.56035C8.4907 2.14258 8.42463 2.16758 8.37285 2.21222L1.62463 8.06758C1.56283 8.12115 1.51326 8.18739 1.47929 8.26179C1.44532 8.3362 1.42773 8.41704 1.42773 8.49883C1.42773 8.58062 1.44532 8.66146 1.47929 8.73587C1.51326 8.81027 1.56283 8.8765 1.62463 8.93008L8.41213 14.8211C8.43892 14.8444 8.47106 14.8569 8.50499 14.8569H10.1389C10.2711 14.8569 10.3318 14.6926 10.2318 14.6069L3.97999 9.17829H14.4282C14.5068 9.17829 14.5711 9.11401 14.5711 9.03544V7.96401C14.5711 7.88544 14.5068 7.82115 14.4282 7.82115Z" fill="#58585F"/>
</svg>
