<svg width="42" height="42" viewBox="0 0 42 42" fill="none" xmlns="http://www.w3.org/2000/svg">
<path d="M0 12C0 5.37258 5.37258 0 12 0H30C36.6274 0 42 5.37258 42 12V30C42 36.6274 36.6274 42 30 42H12C5.37258 42 0 36.6274 0 30V12Z" fill="#49C965"/>
<path d="M33.0942 14.939H25.5942V11.6284C25.5942 11.1099 25.1753 10.6909 24.6567 10.6909H12.7036V9.51904C12.7036 9.39014 12.5981 9.28467 12.4692 9.28467H10.8286C10.6997 9.28467 10.5942 9.39014 10.5942 9.51904V32.4878C10.5942 32.6167 10.6997 32.7222 10.8286 32.7222H12.4692C12.5981 32.7222 12.7036 32.6167 12.7036 32.4878V24.7534H19.9692V28.064C19.9692 28.5825 20.3881 29.0015 20.9067 29.0015H33.0942C33.6128 29.0015 34.0317 28.5825 34.0317 28.064V15.8765C34.0317 15.3579 33.6128 14.939 33.0942 14.939ZM12.7036 22.644V12.8003H23.4848V22.644H12.7036ZM31.9223 26.8921H22.0786V24.7534H25.3598C25.4887 24.7534 25.5942 24.648 25.5942 24.519V17.0483H31.9223V26.8921Z" fill="white"/>
</svg>
