<svg width="42" height="42" viewBox="0 0 42 42" fill="none" xmlns="http://www.w3.org/2000/svg">
<path d="M0 12C0 5.37258 5.37258 0 12 0H30C36.6274 0 42 5.37258 42 12V30C42 36.6274 36.6274 42 30 42H12C5.37258 42 0 36.6274 0 30V12Z" fill="#ED5A5C"/>
<path d="M31.7817 14.939H24.2817V11.6284C24.2817 11.1099 23.8628 10.6909 23.3442 10.6909H11.3911V9.51904C11.3911 9.39014 11.2856 9.28467 11.1567 9.28467H9.51607C9.38716 9.28467 9.28169 9.39014 9.28169 9.51904V32.4878C9.28169 32.6167 9.38716 32.7222 9.51607 32.7222H11.1567C11.2856 32.7222 11.3911 32.6167 11.3911 32.4878V24.7534H18.6567V28.064C18.6567 28.5825 19.0756 29.0015 19.5942 29.0015H31.7817C32.3003 29.0015 32.7192 28.5825 32.7192 28.064V15.8765C32.7192 15.3579 32.3003 14.939 31.7817 14.939ZM11.3911 22.644V12.8003H22.1723V22.644H11.3911ZM30.6098 26.8921H20.7661V24.7534H24.0473C24.1762 24.7534 24.2817 24.648 24.2817 24.519V17.0483H30.6098V26.8921Z" fill="white"/>
</svg>
