<svg width="20" height="20" viewBox="0 0 20 20" fill="none" xmlns="http://www.w3.org/2000/svg">
<path d="M11.3837 13.4224C11.3502 13.3892 11.3048 13.3706 11.2576 13.3706C11.2104 13.3706 11.165 13.3892 11.1315 13.4224L8.53774 16.0162C7.33684 17.2171 5.31006 17.3443 3.98417 16.0162C2.65604 14.6881 2.78327 12.6635 3.98417 11.4626L6.57792 8.86886C6.64711 8.79967 6.64711 8.68583 6.57792 8.61663L5.68952 7.72824C5.65596 7.695 5.61064 7.67636 5.56341 7.67636C5.51618 7.67636 5.47085 7.695 5.43729 7.72824L2.84354 10.322C0.955148 12.2104 0.955148 15.2662 2.84354 17.1523C4.73193 19.0385 7.78774 19.0407 9.6739 17.1523L12.2676 14.5586C12.3368 14.4894 12.3368 14.3756 12.2676 14.3064L11.3837 13.4224ZM17.156 2.84208C15.2676 0.953683 12.2118 0.953683 10.3257 2.84208L7.7297 5.43583C7.69647 5.46939 7.67783 5.51471 7.67783 5.56194C7.67783 5.60917 7.69647 5.6545 7.7297 5.68806L8.61586 6.57422C8.68506 6.64342 8.7989 6.64342 8.86809 6.57422L11.4618 3.98047C12.6627 2.77958 14.6895 2.65234 16.0154 3.98047C17.3435 5.30859 17.2163 7.33315 16.0154 8.53404L13.4217 11.1278C13.3884 11.1614 13.3698 11.2067 13.3698 11.2539C13.3698 11.3011 13.3884 11.3465 13.4217 11.38L14.3101 12.2684C14.3793 12.3376 14.4931 12.3376 14.5623 12.2684L17.156 9.67467C19.0422 7.78627 19.0422 4.73047 17.156 2.84208ZM12.1895 6.88002C12.156 6.84679 12.1106 6.82815 12.0634 6.82815C12.0162 6.82815 11.9709 6.84679 11.9373 6.88002L6.88149 11.9336C6.84825 11.9672 6.82961 12.0125 6.82961 12.0597C6.82961 12.1069 6.84825 12.1523 6.88149 12.1858L7.76542 13.0698C7.83461 13.139 7.94845 13.139 8.01765 13.0698L13.0712 8.01618C13.1404 7.94699 13.1404 7.83315 13.0712 7.76395L12.1895 6.88002Z" fill="#58585F"/>
</svg>
