<svg width="16" height="17" viewBox="0 0 16 17" fill="none" xmlns="http://www.w3.org/2000/svg">
<path d="M13.5753 11.858C13.1284 11.4107 12.6061 11.0456 12.0325 10.7794C12.8414 10.1241 13.3575 9.12408 13.3575 8.00265C13.3575 6.02408 11.7075 4.40087 9.7289 4.43122C7.78068 4.46158 6.21104 6.04908 6.21104 8.00265C6.21104 9.12408 6.7289 10.1241 7.53604 10.7794C6.9623 11.0454 6.44 11.4105 5.99318 11.858C5.01818 12.8348 4.46461 14.1241 4.4289 15.4991C4.42842 15.5181 4.43176 15.5371 4.43873 15.5548C4.44569 15.5726 4.45614 15.5888 4.46945 15.6024C4.48277 15.6161 4.49868 15.6269 4.51625 15.6343C4.53382 15.6417 4.55269 15.6455 4.57175 15.6455H5.57175C5.64854 15.6455 5.71282 15.5848 5.71461 15.508C5.74854 14.4723 6.16818 13.5027 6.90568 12.7669C7.28307 12.3875 7.73197 12.0868 8.22638 11.882C8.72079 11.6773 9.25091 11.5726 9.78604 11.5741C10.8735 11.5741 11.8968 11.9973 12.6664 12.7669C13.4021 13.5027 13.8218 14.4723 13.8575 15.508C13.8593 15.5848 13.9235 15.6455 14.0003 15.6455H15.0003C15.0194 15.6455 15.0383 15.6417 15.0558 15.6343C15.0734 15.6269 15.0893 15.6161 15.1026 15.6024C15.1159 15.5888 15.1264 15.5726 15.1333 15.5548C15.1403 15.5371 15.1437 15.5181 15.1432 15.4991C15.1075 14.1241 14.5539 12.8348 13.5753 11.858ZM9.78604 10.2884C9.17532 10.2884 8.60032 10.0509 8.16997 9.61872C7.95399 9.40445 7.78339 9.14887 7.66834 8.86722C7.55329 8.58558 7.49615 8.28365 7.50032 7.97944C7.50568 7.39372 7.73961 6.82765 8.14854 6.40801C8.57711 5.96872 9.15032 5.72408 9.76282 5.71694C10.3682 5.71158 10.9557 5.94729 11.3878 6.37051C11.8307 6.80444 12.0735 7.3848 12.0735 8.00265C12.0735 8.61337 11.836 9.18658 11.4039 9.61872C11.1919 9.83175 10.9397 10.0006 10.662 10.1156C10.3843 10.2305 10.0866 10.2892 9.78604 10.2884ZM5.31282 8.47408C5.29675 8.31872 5.28782 8.16158 5.28782 8.00265C5.28782 7.71872 5.31461 7.44194 5.36461 7.1723C5.37711 7.10801 5.34318 7.04194 5.28425 7.01515C5.0414 6.90622 4.81818 6.75622 4.62532 6.56694C4.39807 6.34659 4.21925 6.0813 4.10026 5.78798C3.98127 5.49466 3.92473 5.17976 3.93425 4.86337C3.95032 4.29015 4.18068 3.74551 4.58247 3.33479C5.02354 2.88301 5.61639 2.63658 6.24675 2.64372C6.8164 2.64908 7.36639 2.86872 7.78247 3.25801C7.92354 3.39015 8.04497 3.53658 8.14675 3.69372C8.18247 3.74908 8.25211 3.77229 8.31282 3.75087C8.62711 3.64194 8.95925 3.56515 9.30032 3.52944C9.40032 3.51872 9.45747 3.41158 9.41282 3.32229C8.83247 2.17408 7.64675 1.38122 6.27532 1.35979C4.29497 1.32944 2.64497 2.95265 2.64497 4.92944C2.64497 6.05087 3.16104 7.05087 3.96997 7.70622C3.40211 7.96872 2.8789 8.33122 2.42532 8.78479C1.44675 9.76158 0.893181 11.0509 0.857467 12.4277C0.85699 12.4467 0.860333 12.4657 0.867298 12.4834C0.874264 12.5012 0.884711 12.5173 0.898024 12.531C0.911338 12.5446 0.927248 12.5555 0.944817 12.5629C0.962386 12.5703 0.981259 12.5741 1.00032 12.5741H2.00211C2.0789 12.5741 2.14318 12.5134 2.14497 12.4366C2.1789 11.4009 2.59854 10.4312 3.33604 9.69551C3.86104 9.17051 4.5039 8.80622 5.20568 8.62944C5.27532 8.61158 5.32175 8.54551 5.31282 8.47408Z" fill="#58585F"/>
</svg>
