<svg width="36" height="36" viewBox="0 0 36 36" fill="none" xmlns="http://www.w3.org/2000/svg">
<path d="M31.9217 28.104C31.1638 26.3087 30.0639 24.678 28.6833 23.3027C27.3069 21.9234 25.6765 20.8237 23.882 20.0643C23.8659 20.0563 23.8498 20.0522 23.8337 20.0442C26.3369 18.2362 27.9641 15.2911 27.9641 11.9683C27.9641 6.46385 23.5043 2.00403 17.9998 2.00403C12.4954 2.00403 8.03554 6.46385 8.03554 11.9683C8.03554 15.2911 9.66277 18.2362 12.1659 20.0482C12.1498 20.0563 12.1337 20.0603 12.1177 20.0683C10.3177 20.8277 8.7025 21.9165 7.31634 23.3067C5.93705 24.6831 4.83734 26.3136 4.07795 28.1081C3.33192 29.8649 2.92957 31.7484 2.89268 33.6567C2.89161 33.6996 2.89913 33.7423 2.9148 33.7822C2.93047 33.8221 2.95398 33.8585 2.98393 33.8892C3.01389 33.9199 3.04969 33.9443 3.08922 33.961C3.12875 33.9776 3.17121 33.9862 3.21411 33.9862H5.62482C5.80161 33.9862 5.94223 33.8456 5.94625 33.6728C6.02661 30.571 7.27214 27.6661 9.47393 25.4643C11.7521 23.1862 14.7775 21.9326 17.9998 21.9326C21.2221 21.9326 24.2476 23.1862 26.5257 25.4643C28.7275 27.6661 29.973 30.571 30.0534 33.6728C30.0574 33.8496 30.198 33.9862 30.3748 33.9862H32.7855C32.8284 33.9862 32.8709 33.9776 32.9104 33.961C32.95 33.9443 32.9858 33.9199 33.0157 33.8892C33.0457 33.8585 33.0692 33.8221 33.0848 33.7822C33.1005 33.7423 33.108 33.6996 33.107 33.6567C33.0668 31.7362 32.669 29.8679 31.9217 28.104ZM17.9998 18.879C16.1556 18.879 14.4199 18.1598 13.1141 16.854C11.8083 15.5482 11.0891 13.8125 11.0891 11.9683C11.0891 10.1241 11.8083 8.3884 13.1141 7.0826C14.4199 5.7768 16.1556 5.0576 17.9998 5.0576C19.844 5.0576 21.5797 5.7768 22.8855 7.0826C24.1913 8.3884 24.9105 10.1241 24.9105 11.9683C24.9105 13.8125 24.1913 15.5482 22.8855 16.854C21.5797 18.1598 19.844 18.879 17.9998 18.879Z" fill="#58585F"/>
</svg>
