<svg width="16" height="16" viewBox="0 0 16 16" fill="none" xmlns="http://www.w3.org/2000/svg">
<g clip-path="url(#clip0_250_4674)">
<path d="M15.3034 14.3401L12.6962 11.7329C14.8766 9.074 14.7248 5.13471 12.2319 2.64364C9.58909 -0.00100452 5.29623 -0.00100452 2.64266 2.64364C-0.00198108 5.29721 -0.00198108 9.59007 2.64266 12.2329C5.13373 14.7258 9.07302 14.8776 11.7319 12.6972L14.3391 15.3044C14.3962 15.3544 14.4873 15.3544 14.5355 15.3044L15.3034 14.5365C15.3534 14.4883 15.3534 14.3972 15.3034 14.3401ZM11.2855 11.2865C9.16409 13.4061 5.72838 13.4061 3.60695 11.2865C1.48731 9.16507 1.48731 5.72935 3.60695 3.60792C5.72838 1.48828 9.16409 1.48828 11.2855 3.60792C13.4052 5.72935 13.4052 9.16507 11.2855 11.2865Z" fill="#58585F"/>
</g>
<defs>
<clipPath id="clip0_250_4674">
<rect width="16" height="16" fill="white"/>
</clipPath>
</defs>
</svg>
