<svg width="24" height="24" viewBox="0 0 24 24" fill="none" xmlns="http://www.w3.org/2000/svg">
<path d="M13.3866 11.9987L20.4178 3.61749C20.5357 3.47821 20.4366 3.2666 20.2545 3.2666H18.117C17.9911 3.2666 17.8705 3.32285 17.7875 3.41928L11.9884 10.3327L6.18928 3.41928C6.10892 3.32285 5.98838 3.2666 5.85981 3.2666H3.72231C3.54017 3.2666 3.44106 3.47821 3.55892 3.61749L10.5902 11.9987L3.55892 20.38C3.53252 20.411 3.51558 20.449 3.51012 20.4894C3.50465 20.5298 3.5109 20.5709 3.5281 20.6078C3.5453 20.6448 3.57275 20.676 3.60717 20.6978C3.6416 20.7196 3.68156 20.7311 3.72231 20.7309H5.85981C5.98571 20.7309 6.10624 20.6746 6.18928 20.5782L11.9884 13.6648L17.7875 20.5782C17.8678 20.6746 17.9884 20.7309 18.117 20.7309H20.2545C20.4366 20.7309 20.5357 20.5193 20.4178 20.38L13.3866 11.9987Z" fill="black" fill-opacity="0.85"/>
</svg>
