<svg width="16" height="16" viewBox="0 0 16 16" fill="none" xmlns="http://www.w3.org/2000/svg">
<g clip-path="url(#clip0_250_5167)">
<path d="M7.99953 4.33491C5.97274 4.33491 4.33703 5.97062 4.33703 7.99741C4.33703 10.0242 5.97274 11.6599 7.99953 11.6599C10.0263 11.6599 11.662 10.0242 11.662 7.99741C11.662 5.97062 10.0263 4.33491 7.99953 4.33491ZM7.99953 10.3778C6.68881 10.3778 5.61917 9.30812 5.61917 7.99741C5.61917 6.68669 6.68881 5.61705 7.99953 5.61705C9.31024 5.61705 10.3799 6.68669 10.3799 7.99741C10.3799 9.30812 9.31024 10.3778 7.99953 10.3778ZM11.812 3.33133C11.3388 3.33133 10.9567 3.71348 10.9567 4.18669C10.9567 4.65991 11.3388 5.04205 11.812 5.04205C12.2852 5.04205 12.6674 4.66169 12.6674 4.18669C12.6675 4.07433 12.6455 3.96303 12.6026 3.85919C12.5596 3.75535 12.4966 3.661 12.4172 3.58155C12.3377 3.50209 12.2434 3.43909 12.1395 3.39616C12.0357 3.35322 11.9244 3.33119 11.812 3.33133ZM15.1388 7.99741C15.1388 7.01169 15.1477 6.03491 15.0924 5.05098C15.037 3.90812 14.7763 2.89383 13.9406 2.05812C13.1031 1.22062 12.0906 0.961692 10.9477 0.906335C9.96203 0.850978 8.98524 0.859906 8.00131 0.859906C7.0156 0.859906 6.03881 0.850978 5.05488 0.906335C3.91203 0.961692 2.89774 1.22241 2.06203 2.05812C1.22453 2.89562 0.965598 3.90812 0.910241 5.05098C0.854884 6.03669 0.863812 7.01348 0.863812 7.99741C0.863812 8.98133 0.854884 9.95991 0.910241 10.9438C0.965598 12.0867 1.22631 13.101 2.06203 13.9367C2.89953 14.7742 3.91203 15.0331 5.05488 15.0885C6.0406 15.1438 7.01738 15.1349 8.00131 15.1349C8.98703 15.1349 9.96381 15.1438 10.9477 15.0885C12.0906 15.0331 13.1049 14.7724 13.9406 13.9367C14.7781 13.0992 15.037 12.0867 15.0924 10.9438C15.1495 9.95991 15.1388 8.98312 15.1388 7.99741ZM13.5674 12.2081C13.437 12.5331 13.2799 12.776 13.0281 13.026C12.7763 13.2778 12.5352 13.4349 12.2102 13.5653C11.271 13.9385 9.0406 13.8545 7.99953 13.8545C6.95846 13.8545 4.72631 13.9385 3.78703 13.567C3.46203 13.4367 3.21917 13.2795 2.96917 13.0278C2.71738 12.776 2.56024 12.5349 2.42988 12.2099C2.05846 11.2688 2.14238 9.03848 2.14238 7.99741C2.14238 6.95634 2.05846 4.72419 2.42988 3.78491C2.56024 3.45991 2.71738 3.21705 2.96917 2.96705C3.22096 2.71705 3.46203 2.55812 3.78703 2.42776C4.72631 2.05633 6.95846 2.14026 7.99953 2.14026C9.0406 2.14026 11.2727 2.05633 12.212 2.42776C12.537 2.55812 12.7799 2.71526 13.0299 2.96705C13.2817 3.21883 13.4388 3.45991 13.5692 3.78491C13.9406 4.72419 13.8567 6.95634 13.8567 7.99741C13.8567 9.03848 13.9406 11.2688 13.5674 12.2081Z" fill="#58585F"/>
</g>
<defs>
<clipPath id="clip0_250_5167">
<rect width="16" height="16" fill="white"/>
</clipPath>
</defs>
</svg>
