<svg width="20" height="20" viewBox="0 0 20 20" fill="none" xmlns="http://www.w3.org/2000/svg">
<path d="M14.7325 3.44369V1.71824C14.7325 1.56869 14.5606 1.4861 14.4445 1.57761L4.38201 9.43699C4.29651 9.50348 4.22733 9.58861 4.17975 9.6859C4.13216 9.78319 4.10742 9.89007 4.10742 9.99837C4.10742 10.1067 4.13216 10.2136 4.17975 10.3108C4.22733 10.4081 4.29651 10.4933 4.38201 10.5598L14.4445 18.4191C14.5628 18.5107 14.7325 18.4281 14.7325 18.2785V16.5531C14.7325 16.4437 14.6811 16.3388 14.5963 16.2718L6.56058 9.99949L14.5963 3.72494C14.6811 3.65797 14.7325 3.55306 14.7325 3.44369Z" fill="#97979D"/>
</svg>
