<svg width="16" height="17" viewBox="0 0 16 17" fill="none" xmlns="http://www.w3.org/2000/svg">
<path d="M14.5717 2.64509H11.5717V1.50223C11.5717 1.42366 11.5074 1.35938 11.4289 1.35938H10.4289C10.3503 1.35938 10.286 1.42366 10.286 1.50223V2.64509H5.71457V1.50223C5.71457 1.42366 5.65028 1.35938 5.57171 1.35938H4.57171C4.49314 1.35938 4.42885 1.42366 4.42885 1.50223V2.64509H1.42885C1.11278 2.64509 0.857422 2.90045 0.857422 3.21652V15.0737C0.857422 15.3897 1.11278 15.6451 1.42885 15.6451H14.5717C14.8878 15.6451 15.1431 15.3897 15.1431 15.0737V3.21652C15.1431 2.90045 14.8878 2.64509 14.5717 2.64509ZM13.8574 14.3594H2.14314V7.57366H13.8574V14.3594ZM2.14314 6.35938V3.9308H4.42885V4.78795C4.42885 4.86652 4.49314 4.9308 4.57171 4.9308H5.57171C5.65028 4.9308 5.71457 4.86652 5.71457 4.78795V3.9308H10.286V4.78795C10.286 4.86652 10.3503 4.9308 10.4289 4.9308H11.4289C11.5074 4.9308 11.5717 4.86652 11.5717 4.78795V3.9308H13.8574V6.35938H2.14314Z" fill="#58585F"/>
</svg>
