<svg width="48" height="22" viewBox="0 0 48 22" fill="none" xmlns="http://www.w3.org/2000/svg">
  <rect width="48" height="22" rx="11" fill="#FFEC81"/>
  
  <!-- x2 í…ìŠ¤íŠ¸ -->
  <path d="M7.97852 17.858H6.80252L9.85452 13.756L6.91452 9.766H8.09052L10.4285 12.958L12.7525 9.766H13.9285L11.0025 13.756L14.0405 17.858H12.8645L10.4285 14.526L7.97852 17.858ZM17.1901 17.858V17.074L21.3761 12.916C22.0947 12.1973 22.6127 11.572 22.9301 11.04C23.2474 10.508 23.4061 9.95733 23.4061 9.388C23.4061 8.75333 23.1821 8.24933 22.7341 7.876C22.2954 7.50267 21.6887 7.316 20.9141 7.316C19.6074 7.316 18.7021 8.128 18.1981 9.752L17.2321 9.514C17.4841 8.618 17.9181 7.876 18.5341 7.288C19.1594 6.69067 19.9527 6.392 20.9141 6.392C21.6047 6.392 22.2114 6.51333 22.7341 6.756C23.2661 6.99867 23.6767 7.34867 23.9661 7.806C24.2554 8.254 24.4001 8.77667 24.4001 9.374C24.4001 10.0927 24.2134 10.7693 23.8401 11.404C23.4667 12.0293 22.8927 12.7293 22.1181 13.504L18.6741 16.934H24.7081V17.858H17.1901Z" fill="#00AAFF"/>
  
  <!-- ðŸ”¥ ë¶ˆê½ƒ ì•„ì´ì½˜ ì‚½ìž… (ê¸°ì¡´ fill="orange" ì œê±°) -->
  <g transform="translate(28,3)"> <!-- ðŸ”¥ ìœ„ì¹˜ ì¡°ì • -->
    <path d="M0 14.98H14V0.98H0V14.98Z" fill="#FF4500"/> <!-- âœ… ì£¼í™©ìƒ‰ ë¶ˆê½ƒ -->
  </g>
</svg>